<?xml version="1.0" encoding="UTF-8"?>
<svg version="1.1" xmlns="http://www.w3.org/2000/svg" width="600" height="457">
<path d="M0 0 C0.99 0 1.98 0 3 0 C4.44511712 8.14520561 3.87015502 14.4984597 -0.65625 21.59765625 C-5.26108374 27.75369458 -5.26108374 27.75369458 -9 29 C-9 29.66 -9 30.32 -9 31 C-10.42114258 32.26513672 -10.42114258 32.26513672 -12.39453125 33.6796875 C-13.10287109 34.19660156 -13.81121094 34.71351562 -14.54101562 35.24609375 C-15.29060547 35.78363281 -16.04019531 36.32117188 -16.8125 36.875 C-18.28127591 37.92944 -19.746261 38.98918449 -21.20703125 40.0546875 C-21.8616333 40.52374512 -22.51623535 40.99280273 -23.19067383 41.47607422 C-25.15579402 43.1312193 -26.53702633 44.89646276 -28 47 C-25.88410958 50.9820364 -23.63062467 53.38854349 -20.0625 56.125 C-19.20785156 56.78757813 -18.35320312 57.45015625 -17.47265625 58.1328125 C-15.92211079 59.30368253 -14.3679578 60.46980677 -12.80859375 61.62890625 C-7.33026059 65.78202707 -2.94703016 71.34764695 -1 78 C-0.61501263 83.00483575 -1.40578843 87.21056163 -2.7578125 91.984375 C-3.25937348 94.31510639 -3.25937348 94.31510639 -1 97 C-0.875 99.6875 -0.875 99.6875 -1 102 C-0.34 102.33 0.32 102.66 1 103 C0.67 105.64 0.34 108.28 0 111 C0.66 111 1.32 111 2 111 C2 110.34 2 109.68 2 109 C3.390625 107.703125 3.390625 107.703125 5.25 106.25 C11.68284127 100.86556948 16.1957513 93.30164485 17.27001953 84.88427734 C17.70468459 79.92909565 17.88464681 74.97172244 18 70 C17.34 69.67 16.68 69.34 16 69 C16.33 67.35 16.66 65.7 17 64 C19.88839074 66.60886905 21.36295066 68.16470294 22 72 C22.43166905 80.5329928 22.18678833 88.70191927 20 97 C19.34 97 18.68 97 18 97 C17.731875 97.556875 17.46375 98.11375 17.1875 98.6875 C15.89100504 101.21225334 14.57523677 103.63714484 13 106 C12.34 106 11.68 106 11 106 C10.67 106.99 10.34 107.98 10 109 C8.3153656 110.42921283 6.57729857 111.79604237 4.8125 113.125 C0.29161939 116.71597115 -2.75615034 120.09803831 -5.74609375 124.99609375 C-11.5442136 134.2622479 -21.49193281 137.43231089 -31.53515625 139.8515625 C-40.06373493 141.71403939 -48.13659821 142.20517164 -56.84375 142.0546875 C-69.24584843 141.84185 -86.37910861 141.78955994 -96.5625 150.125 C-101.86404094 155.57935697 -106.37676394 161.84340453 -109 169 C-108.236875 168.938125 -107.47375 168.87625 -106.6875 168.8125 C-104 169 -104 169 -102.1875 170.5 C-101.5996875 171.2425 -101.5996875 171.2425 -101 172 C-100.071875 171.2575 -100.071875 171.2575 -99.125 170.5 C-97 169 -97 169 -95 169 C-95 168.34 -95 167.68 -95 167 C-90.01866603 162.64302942 -84.57458824 160.81845318 -78 161 C-77.01 161.33 -76.02 161.66 -75 162 C-74.97314588 164.31243792 -74.95367159 166.6249627 -74.9375 168.9375 C-74.92589844 170.22527344 -74.91429687 171.51304687 -74.90234375 172.83984375 C-75 176 -75 176 -76 177 C-79.56326446 177.07290567 -83.11632664 176.9960357 -86.6796875 176.9375 C-90.00187243 176.83489228 -90.00187243 176.83489228 -93 178 C-91.91475147 180.98443345 -90.72131395 183.43544695 -89 186.125 C-84.68135528 193.56536169 -84.64585643 201.73972423 -86 210 C-86.66 210 -87.32 210 -88 210 C-88.0825 210.680625 -88.165 211.36125 -88.25 212.0625 C-89.99069554 218.8802242 -93.42013661 222.99705453 -99 227 C-99.66 227 -100.32 227 -101 227 C-100.59007812 228.07378906 -100.18015625 229.14757812 -99.7578125 230.25390625 C-99.21339284 231.69004776 -98.66913039 233.12624887 -98.125 234.5625 C-97.85558594 235.26697266 -97.58617187 235.97144531 -97.30859375 236.69726562 C-96.02752993 240.08739793 -94.93303971 243.28810547 -94.109375 246.83203125 C-92.77002478 250.65672501 -91.6918641 251.3574442 -88.125 253.125 C-83.00772566 255.89408785 -79.88821809 258.33534574 -78 264 C-77.24502458 272.95458193 -76.60325386 281.24020119 -82.078125 288.83984375 C-85.4054841 292.57974128 -88.85080063 296.17064119 -93 299 C-93.99 299 -94.98 299 -96 299 C-96 299.66 -96 300.32 -96 301 C-96.82242188 301.21011719 -97.64484375 301.42023438 -98.4921875 301.63671875 C-107.55067324 304.45049781 -111.56025717 308.06742517 -116.78125 315.74609375 C-120.24776295 320.82990587 -123.86794483 325.48859383 -129 329 C-129.99 329 -130.98 329 -132 329 C-131.41519099 325.93172702 -130.56908882 324.16077123 -128.49609375 321.8359375 C-128.00302734 321.27132813 -127.50996094 320.70671875 -127.00195312 320.125 C-126.48568359 319.5475 -125.96941406 318.97 -125.4375 318.375 C-121.59512901 314.68011707 -121.59512901 314.68011707 -120 310 C-119.34 310 -118.68 310 -118 310 C-118 309.34 -118 308.68 -118 308 C-119.26714844 308.03480469 -120.53429687 308.06960938 -121.83984375 308.10546875 C-123.53904911 308.13363237 -125.23826898 308.16092975 -126.9375 308.1875 C-128.18370117 308.22520508 -128.18370117 308.22520508 -129.45507812 308.26367188 C-135.54148936 308.33471948 -140.35270589 307.20226986 -146 305 C-146.93070313 304.69578125 -147.86140625 304.3915625 -148.8203125 304.078125 C-156.20891125 301.42323867 -160.6346966 297.58610516 -164.9375 291.0625 C-166.77026697 285.77981872 -166.47533262 281.69337247 -165 276.4375 C-161.50390231 270.42858209 -156.11379988 266.24795618 -150 263 C-150.54269531 262.54109375 -151.08539063 262.0821875 -151.64453125 261.609375 C-152.71767578 260.68898438 -152.71767578 260.68898438 -153.8125 259.75 C-154.87404297 258.84507812 -154.87404297 258.84507812 -155.95703125 257.921875 C-160.85055301 253.31840902 -160.85055301 253.31840902 -161.28515625 249.484375 C-160.72817936 242.64430789 -159.14624499 237.76403051 -154 233 C-153.34 233 -152.68 233 -152 233 C-152 232.34 -152 231.68 -152 231 C-149.5 229.375 -149.5 229.375 -147 228 C-147.38671875 227.55269531 -147.7734375 227.10539063 -148.171875 226.64453125 C-149.25557151 225.38647763 -150.33476788 224.12453779 -151.41015625 222.859375 C-152.64948981 221.40993329 -153.91376461 219.98180515 -155.1875 218.5625 C-159.21860011 212.86335846 -161.50802685 205.69131044 -160.75 198.69140625 C-159.10966946 189.30344308 -156.49093529 181.18816394 -149 175 C-148.34 175 -147.68 175 -147 175 C-147 174.34 -147 173.68 -147 173 C-145.35 172.67 -143.7 172.34 -142 172 C-142 171.34 -142 170.68 -142 170 C-135.79485526 167.86380263 -130.57315478 166.63482473 -124 167 C-124.20625 166.38125 -124.4125 165.7625 -124.625 165.125 C-124.74875 164.42375 -124.8725 163.7225 -125 163 C-124.34 162.34 -123.68 161.68 -123 161 C-122.24223736 159.31301018 -121.53888218 157.60109367 -120.875 155.875 C-120.52179688 154.96492187 -120.16859375 154.05484375 -119.8046875 153.1171875 C-119.53914063 152.41851562 -119.27359375 151.71984375 -119 151 C-118.34 151 -117.68 151 -117 151 C-116.74992187 150.27296875 -116.49984375 149.5459375 -116.2421875 148.796875 C-114.89346364 145.76012569 -113.32813821 143.72749127 -111.125 141.25 C-110.44695312 140.47140625 -109.76890625 139.6928125 -109.0703125 138.890625 C-106.95994555 136.96342197 -105.78947174 136.37526526 -103 136 C-103 135.34 -103 134.68 -103 134 C-88.20392465 126.26398091 -73.65180958 122.13041686 -56.94140625 121.30859375 C-55.98041016 121.15583984 -55.98041016 121.15583984 -55 121 C-54.67 120.34 -54.34 119.68 -54 119 C-52.26538086 118.29785156 -52.26538086 118.29785156 -50.02734375 117.640625 C-45.00342434 116.0550653 -40.31448685 114.01347311 -35.5625 111.75 C-34.73210205 111.35449951 -33.9017041 110.95899902 -33.04614258 110.55151367 C-24.18236643 106.24079137 -16.71655921 101.24681389 -10 94 C-12.44446873 88.29623964 -17.50049473 84.47698039 -22.75 81.375 C-25.56836662 79.65266484 -27.03220027 77.64423089 -29 75 C-29.845625 74.071875 -30.69125 73.14375 -31.5625 72.1875 C-36.34721601 66.41335197 -37.58293227 60.34494657 -37 53 C-36.34853151 50.66237777 -35.68473395 48.32809543 -35 46 C-35.33 45.01 -35.66 44.02 -36 43 C-36.76496999 35.35030007 -35.67555024 29.71636691 -32 23 C-31.67 22.34 -31.34 21.68 -31 21 C-30.34 21 -29.68 21 -29 21 C-29 20.34 -29 19.68 -29 19 C-28.01 19 -27.02 19 -26 19 C-26.33 20.98 -26.66 22.96 -27 25 C-27.66 25 -28.32 25 -29 25 C-28.67 25.99 -28.34 26.98 -28 28 C-28.66 28.33 -29.32 28.66 -30 29 C-31.0317435 31.93300669 -31.10790988 34.66212836 -31.0625 37.75 C-31.05347656 38.54921875 -31.04445312 39.3484375 -31.03515625 40.171875 C-31.02355469 40.77515625 -31.01195312 41.3784375 -31 42 C-30.34 42 -29.68 42 -29 42 C-29 41.34 -29 40.68 -29 40 C-25.4148798 36.76464763 -21.60184816 33.96443574 -17.66015625 31.18359375 C-9.61356644 25.44684854 -2.65657824 19.40120166 -0.75 9.375 C-0.22494881 6.14321939 0 3.29515797 0 0 Z M-32 51 C-33.32976058 59.10673315 -32.60766239 63.08850642 -28 70 C-27.34 70 -26.68 70 -26 70 C-25.73574219 70.59039062 -25.47148437 71.18078125 -25.19921875 71.7890625 C-21.98305197 77.71854261 -15.44096914 83.08077948 -10 87 C-9.34 87 -8.68 87 -8 87 C-7.67 87.66 -7.34 88.32 -7 89 C-5.22931952 87.22931952 -5.66186341 84.84329887 -5.5625 82.4375 C-5.65576761 77.15855304 -6.26077275 74.12539918 -9.7421875 70.15625 C-18.03935563 61.07508802 -18.03935563 61.07508802 -28 56 C-28.28875 55.360625 -28.5775 54.72125 -28.875 54.0625 C-29.82823451 51.84793921 -29.82823451 51.84793921 -32 51 Z M-8 97 C-8.556875 97.70125 -9.11375 98.4025 -9.6875 99.125 C-18.34416925 109.88734555 -31.67529912 114.54191818 -44 120 C-42.19310818 122.22162212 -42.19310818 122.22162212 -39.6796875 122.265625 C-33.71824251 122.23241361 -28.72992497 121.59686434 -23 120 C-21.72125 119.87625 -20.4425 119.7525 -19.125 119.625 C-14.10440485 119.03610315 -9.33346357 117.6421506 -5 115 C-3.65776386 112.19833907 -3.65776386 112.19833907 -4 109 C-3.9071875 107.2365625 -3.9071875 107.2365625 -3.8125 105.4375 C-3.99301852 102.12799373 -4.5661984 99.9572158 -6 97 C-6.66 97 -7.32 97 -8 97 Z M-18.73803711 122.98144531 C-22.74625694 124.01927409 -26.54247265 124.30863963 -30.69140625 124.421875 C-32.14652723 124.47806775 -33.60160468 124.53539698 -35.05664062 124.59375 C-37.29823184 124.67550129 -39.53903647 124.74944239 -41.78149414 124.80273438 C-57.08223159 125.19579949 -70.04324382 129.49872914 -83 138 C-83.33 138.66 -83.66 139.32 -84 140 C-80.72860758 139.69318135 -77.45801079 139.37856718 -74.1875 139.0625 C-73.25873047 138.97548828 -72.32996094 138.88847656 -71.37304688 138.79882812 C-70.48037109 138.71181641 -69.58769531 138.62480469 -68.66796875 138.53515625 C-67.84578857 138.456604 -67.0236084 138.37805176 -66.17651367 138.29711914 C-63.82512578 138.04448955 -63.82512578 138.04448955 -61 137 C-58.72963344 136.95395961 -56.4580147 136.96195996 -54.1875 137 C-41.74829281 137.10629205 -30.14329777 137.05614009 -19 131 C-18.05125 130.484375 -17.1025 129.96875 -16.125 129.4375 C-15.073125 128.7259375 -15.073125 128.7259375 -14 128 C-14 127.34 -14 126.68 -14 126 C-13.360625 125.71125 -12.72125 125.4225 -12.0625 125.125 C-9.84793921 124.17176549 -9.84793921 124.17176549 -9 122 C-12.53936522 121.82303174 -15.28774369 122.07554893 -18.73803711 122.98144531 Z M-108.46875 144.2890625 C-110.18630095 146.20816279 -110.45812222 147.5302878 -111 150 C-111.66 150.33 -112.32 150.66 -113 151 C-109.4335771 150.43162087 -106.79170954 149.52051587 -103.6875 147.6875 C-99.5291537 145.28738066 -95.30973803 143.11568958 -91 141 C-91 140.34 -91 139.68 -91 139 C-90.26910156 138.73058594 -89.53820312 138.46117187 -88.78515625 138.18359375 C-86.07835753 137.0332992 -83.86055545 135.71860572 -81.4375 134.0625 C-80.69371094 133.55847656 -79.94992188 133.05445313 -79.18359375 132.53515625 C-77.08993399 131.06322729 -75.03785061 129.54802711 -73 128 C-86.75113158 126.91438435 -98.53916207 135.89619651 -108.46875 144.2890625 Z M-108 153 C-108 153.66 -108 154.32 -108 155 C-108.58265625 155.2475 -109.1653125 155.495 -109.765625 155.75 C-112.33114236 157.18525446 -113.83724798 158.77663013 -115.75 161 C-116.67039063 162.051875 -116.67039063 162.051875 -117.609375 163.125 C-119.19856922 164.8786657 -119.19856922 164.8786657 -119 167 C-117.35 167 -115.7 167 -114 167 C-113.67 166.01 -113.34 165.02 -113 164 C-112 163 -111 162 -110 161 C-107.06125872 157.34171275 -107.06125872 157.34171275 -106 153 C-106.66 153 -107.32 153 -108 153 Z M-132 175 C-132 175.66 -132 176.32 -132 177 C-132.99 177.33 -133.98 177.66 -135 178 C-138.22441308 182.74178394 -139.42229424 186.22294236 -140 192 C-140.33 192.33 -140.66 192.66 -141 193 C-141.89999778 204.31920281 -140.6905546 214.34358197 -133.59765625 223.44140625 C-131.12860406 225.85009042 -129.09266005 226.90954801 -125.640625 227.1953125 C-124.85171875 227.17210937 -124.0628125 227.14890625 -123.25 227.125 C-122.45078125 227.10695313 -121.6515625 227.08890625 -120.828125 227.0703125 C-120.22484375 227.04710937 -119.6215625 227.02390625 -119 227 C-119.144375 225.824375 -119.28875 224.64875 -119.4375 223.4375 C-119.51871094 222.77621094 -119.59992188 222.11492187 -119.68359375 221.43359375 C-119.92528785 219.57463786 -120.20915554 217.72111768 -120.51171875 215.87109375 C-121.22267545 210.23462904 -121.31517 204.59085854 -121.4296875 198.9140625 C-121.61737795 193.53360281 -122.36849671 189.06081855 -124.34741211 184.04077148 C-125.43012671 180.65490866 -125.19229027 177.52532166 -125 174 C-128.89459074 173.78918149 -128.89459074 173.78918149 -132 175 Z M-120 174 C-119.67 175.32 -119.34 176.64 -119 178 C-118.67 176.68 -118.34 175.36 -118 174 C-118.66 174 -119.32 174 -120 174 Z M-115 176 C-118.04457276 184.0411095 -118.5135265 192.57084577 -115.7265625 200.7265625 C-114.26041989 203.89486092 -112.6982809 206.95101383 -111 210 C-110.32718395 211.33024088 -109.65771191 212.66222675 -109 214 C-108.34 214 -107.68 214 -107 214 C-104.40188765 201.43499113 -104.42470336 189.48574835 -111 178 C-113.05093145 176.59533047 -113.05093145 176.59533047 -115 176 Z M-117 208 C-117.25287193 214.06892629 -116.69832609 219.16200408 -115 225 C-113.35 223.35 -111.7 221.7 -110 220 C-111.32 217.03 -112.64 214.06 -114 211 C-114.66 211 -115.32 211 -116 211 C-116.33 210.01 -116.66 209.02 -117 208 Z M-112 232 C-111.38977709 237.79012933 -111.38977709 237.79012933 -109 243 C-108.34 243.33 -107.68 243.66 -107 244 C-107 245.32 -107 246.64 -107 248 C-105.81575674 249.41577477 -105.81575674 249.41577477 -102.4375 249.0625 C-100.7359375 249.0315625 -100.7359375 249.0315625 -99 249 C-100.08918967 242.13523882 -101.90238801 236.22529789 -105 230 C-107.6465335 230 -109.5808163 230.98139634 -112 232 Z M-142 233 C-142 233.66 -142 234.32 -142 235 C-142.639375 235.226875 -143.27875 235.45375 -143.9375 235.6875 C-146.20423043 236.85506227 -146.20423043 236.85506227 -147 239.375 C-147.27445667 242.14083368 -147.27445667 242.14083368 -145.1875 244.25 C-141.06842043 247.54526366 -137.1575545 247.32602887 -132.0625 247.5625 C-131.20744873 247.6049585 -130.35239746 247.64741699 -129.47143555 247.69116211 C-123.30798321 247.98093941 -117.17071834 248.0894307 -111 248 C-112.65 243.05 -114.3 238.1 -116 233 C-119.95811392 232.80597481 -123.91633015 232.61948199 -127.875 232.4375 C-129.00292969 232.38142578 -130.13085938 232.32535156 -131.29296875 232.26757812 C-132.36933594 232.21923828 -133.44570312 232.17089844 -134.5546875 232.12109375 C-135.54968262 232.0739624 -136.54467773 232.02683105 -137.56982422 231.97827148 C-140.0103794 231.82219018 -140.0103794 231.82219018 -142 233 Z M-141 265 C-141 265.66 -141 266.32 -141 267 C-141.77601563 267.23460937 -142.55203125 267.46921875 -143.3515625 267.7109375 C-147.35793899 269.66094376 -147.90299225 272.2934009 -149.3359375 276.3359375 C-150.47334192 280.8989364 -150.22915715 284.50975954 -148.09765625 288.828125 C-146.98670972 290.70645394 -146.98670972 290.70645394 -145 293 C-144.34 293 -143.68 293 -143 293 C-142.67 293.99 -142.34 294.98 -142 296 C-135.86703179 299.70830636 -129.98357249 300.14916446 -122.9375 300.1875 C-121.15666016 300.20876953 -121.15666016 300.20876953 -119.33984375 300.23046875 C-115.99522549 299.99967053 -113.87540806 299.7150664 -111 298 C-109.56856609 295.60547586 -109.56856609 295.60547586 -108.75 292.75 C-108.27820313 291.35007812 -108.27820313 291.35007812 -107.796875 289.921875 C-106.38267838 284.73648738 -105.78710135 279.68054846 -105.625 274.3125 C-105.57601562 273.19488281 -105.52703125 272.07726562 -105.4765625 270.92578125 C-105.69082944 267.86981769 -105.69082944 267.86981769 -108.09204102 266.33544922 C-111.63637481 264.70775164 -114.15810449 264.6573375 -118.05078125 264.70703125 C-118.70958786 264.71127609 -119.36839447 264.71552094 -120.04716492 264.71989441 C-122.13603885 264.73658804 -124.22392139 264.77421942 -126.3125 264.8125 C-127.73501203 264.82755903 -129.1575393 264.84124531 -130.58007812 264.85351562 C-134.05370351 264.88645997 -137.52675487 264.93817592 -141 265 Z M-103 266 C-102.88637738 267.4800841 -102.75877092 268.95910074 -102.625 270.4375 C-102.55539063 271.26121094 -102.48578125 272.08492188 -102.4140625 272.93359375 C-102.27742188 273.61550781 -102.14078125 274.29742187 -102 275 C-101.34 275.33 -100.68 275.66 -100 276 C-99.67 273.36 -99.34 270.72 -99 268 C-100.32 267.34 -101.64 266.68 -103 266 Z M-95 271 C-95.25394531 271.9178125 -95.50789063 272.835625 -95.76953125 273.78125 C-97.59754734 280.29912009 -99.48324239 286.70810598 -102 293 C-98.81874759 293.32463119 -98.81874759 293.32463119 -96.4375 290.8125 C-92.28210719 286.01781599 -91.77329549 282.24239673 -91.63671875 276.0859375 C-92.08494284 273.51226372 -93.02194689 272.63880917 -95 271 Z " fill="#1A1A1A" transform="translate(242,88)"/>
<path d="M0 0 C0.00423194 0.59230219 0.00846388 1.18460438 0.01282406 1.79485512 C0.11620066 16.21751122 0.2248488 30.64012051 0.33933926 45.06269264 C0.39457966 52.03738387 0.44804634 59.01208022 0.49731445 65.98681641 C0.54486098 72.71712426 0.59738079 79.44737649 0.65294075 86.17762375 C0.67332939 88.74603393 0.69204819 91.31445793 0.70907402 93.88289261 C0.73319523 97.47878258 0.76323943 101.07457775 0.79467773 104.67041016 C0.8004332 105.73352417 0.80618866 106.79663818 0.81211853 107.89196777 C0.85994136 112.70067104 0.99529514 117.27332103 2 122 C2.99 122 3.98 122 5 122 C5 122.99 5 123.98 5 125 C6.65 125.33 8.3 125.66 10 126 C10 127.32 10 128.64 10 130 C-7.5986619 137.391438 -7.5986619 137.391438 -14.34765625 135.2578125 C-16.87894443 133.33092174 -17.20328593 131.00299918 -18 128 C-18.33 127.01 -18.66 126.02 -19 125 C-19.48210938 125.433125 -19.96421875 125.86625 -20.4609375 126.3125 C-21.40839844 127.1478125 -21.40839844 127.1478125 -22.375 128 C-23.00148438 128.556875 -23.62796875 129.11375 -24.2734375 129.6875 C-26 131 -26 131 -28 131 C-28 131.66 -28 132.32 -28 133 C-38.35757708 138.23495761 -46.41171904 137.12745058 -57.19921875 133.62109375 C-58.09060547 133.31365234 -58.09060547 133.31365234 -59 133 C-59 132.34 -59 131.68 -59 131 C-59.87785156 130.82404297 -59.87785156 130.82404297 -60.7734375 130.64453125 C-64.99209025 129.4233423 -68.96481372 126.70805736 -71.25 122.9375 C-71.4975 122.298125 -71.745 121.65875 -72 121 C-72.495 120.401875 -72.99 119.80375 -73.5 119.1875 C-75.46788483 116.31766795 -76.05814547 113.327886 -77 110 C-77.66 109.67 -78.32 109.34 -79 109 C-81.67666517 97.89679632 -81.17573014 87.23242187 -80 76 C-79.34 76 -78.68 76 -78 76 C-77.938125 75.21625 -77.87625 74.4325 -77.8125 73.625 C-75.44581285 63.06593427 -69.2197624 55.02861171 -60.18359375 49.17578125 C-52.56014943 44.89213159 -46.22588402 42.66681301 -37.5 42.8125 C-36.76652344 42.81314453 -36.03304687 42.81378906 -35.27734375 42.81445312 C-31.08387241 42.84821094 -27.12923735 43.18329958 -23 44 C-23 44.66 -23 45.32 -23 46 C-21.68 46.33 -20.36 46.66 -19 47 C-18.92569506 42.80081815 -18.87132587 38.60198726 -18.83520508 34.40234375 C-18.82014319 32.97454154 -18.79968938 31.5467854 -18.77368164 30.11914062 C-18.73718158 28.06368627 -18.72024834 26.00884495 -18.70703125 23.953125 C-18.68346558 22.09929199 -18.68346558 22.09929199 -18.65942383 20.20800781 C-19.02478036 16.76658502 -19.61157549 15.44104586 -22 13 C-23.78413421 11.91167683 -23.78413421 11.91167683 -25.6875 11.25 C-26.780625 10.8375 -27.87375 10.425 -29 10 C-28.75 8.125 -28.75 8.125 -28 6 C-24.71116181 3.59661825 -20.94275087 3.55336854 -17 3 C-15.31923769 2.36971413 -13.65204456 1.70211894 -12 1 C-7.43232477 -0.54974695 -4.6623007 -1.12565822 0 0 Z M-49 54 C-50.2516467 56.08334635 -50.2516467 56.08334635 -51 58 C-51.99 58.33 -52.98 58.66 -54 59 C-62.12283088 69.49198988 -61.71542396 85.4363149 -60.3125 98 C-59.06597695 105.94763015 -56.59305649 112.03407308 -51 118 C-50.34 118 -49.68 118 -49 118 C-48.67 118.99 -48.34 119.98 -48 121 C-41.50896204 124.65120885 -35.14637046 125.00033846 -28 123 C-28 122.34 -28 121.68 -28 121 C-27.278125 120.814375 -26.55625 120.62875 -25.8125 120.4375 C-21.978043 118.47766642 -19.88560587 115.78924149 -18 112 C-17.31636697 108.66683313 -17.32081682 105.43672815 -17.37109375 102.04296875 C-17.36868179 101.09996414 -17.36626984 100.15695953 -17.36378479 99.18537903 C-17.36476054 97.19768048 -17.37808883 95.20995383 -17.40307617 93.22241211 C-17.43728379 90.20656176 -17.42374495 87.19366304 -17.40429688 84.17773438 C-17.41119946 82.23696687 -17.42087556 80.29620686 -17.43359375 78.35546875 C-17.42863388 77.4665947 -17.42367401 76.57772064 -17.41856384 75.66191101 C-17.55514992 68.26554703 -19.27699526 61.36652734 -24 55.52734375 C-24.66 55.00269531 -25.32 54.47804688 -26 53.9375 C-26.66 53.38964844 -27.32 52.84179688 -28 52.27734375 C-35.05175062 47.77358896 -42.63771574 49.41915534 -49 54 Z " fill="#1D1D1D" transform="translate(560,212)"/>
<path d="M0 0 C3.0945422 2.26701294 4.76451967 4.29355901 6 8 C6.66 8 7.32 8 8 8 C8 8.66 8 9.32 8 10 C8.99 10.495 8.99 10.495 10 11 C13.74349835 17.15630001 15.98995153 24.80529457 16 32 C14.83708191 34.639328 14.83708191 34.639328 13 37 C10.55122375 37.60127258 10.55122375 37.60127258 7.6105957 37.56762695 C6.50968094 37.5672493 5.40876617 37.56687164 4.27449036 37.56648254 C3.08691635 37.54067612 1.89934235 37.51486969 0.67578125 37.48828125 C-0.54075638 37.48120651 -1.75729401 37.47413177 -3.01069641 37.46684265 C-6.90358477 37.43881132 -10.79504495 37.37605127 -14.6875 37.3125 C-17.32354697 37.28742868 -19.95961643 37.26461349 -22.59570312 37.24414062 C-29.06429095 37.18895565 -35.53204347 37.10524026 -42 37 C-41.73333985 39.71129633 -41.45273328 42.41993838 -41.1640625 45.12890625 C-41.0906665 45.88997681 -41.01727051 46.65104736 -40.94165039 47.43518066 C-40.33225284 53.00831638 -38.90859948 57.3534292 -36.0234375 62.21484375 C-35 64 -35 64 -35 66 C-34.34 66 -33.68 66 -33 66 C-32.4225 66.598125 -31.845 67.19625 -31.25 67.8125 C-26.25918396 72.66468226 -21.70639001 73.33344872 -15.0078125 73.26367188 C-14.05648437 73.23853516 -13.10515625 73.21339844 -12.125 73.1875 C-11.15046875 73.17396484 -10.1759375 73.16042969 -9.171875 73.14648438 C-6.78067137 73.11131962 -4.39063025 73.0621067 -2 73 C-1.505 71.02 -1.505 71.02 -1 69 C-0.01 69.33 0.98 69.66 2 70 C2 69.34 2 68.68 2 68 C3.32 67.67 4.64 67.34 6 67 C6 66.01 6 65.02 6 64 C6.66 64 7.32 64 8 64 C8.226875 63.360625 8.45375 62.72125 8.6875 62.0625 C10 60 10 60 12.625 59.25 C13.40875 59.1675 14.1925 59.085 15 59 C13.63636364 70.36363636 13.63636364 70.36363636 10 74 C9.319375 74.309375 8.63875 74.61875 7.9375 74.9375 C5.65434116 75.90403542 5.65434116 75.90403542 5 79 C4.34 79 3.68 79 3 79 C3 79.66 3 80.32 3 81 C-1.38461538 84 -1.38461538 84 -4 84 C-4 84.66 -4 85.32 -4 86 C-12.89307763 89.5914352 -23.42758324 90.80002987 -32.78125 88.23828125 C-34.96977816 87.29016888 -36.96077423 86.23360571 -39 85 C-39.66773438 84.64164062 -40.33546875 84.28328125 -41.0234375 83.9140625 C-46.59405908 80.89001078 -50.10802593 76.92983382 -54 72 C-54.99 72.495 -54.99 72.495 -56 73 C-55.938125 72.278125 -55.87625 71.55625 -55.8125 70.8125 C-55.78181286 67.95570889 -55.78181286 67.95570889 -57.40625 65.734375 C-64.0340687 54.36311742 -63.05644388 39.3022673 -59.91015625 27.0390625 C-57.23350234 18.10156574 -53.0268813 9.27573247 -45 4 C-44.34 4 -43.68 4 -43 4 C-42.67 3.01 -42.34 2.02 -42 1 C-40.68 1 -39.36 1 -38 1 C-38 0.34 -38 -0.32 -38 -1 C-26.43678661 -5.81800558 -11.13204445 -6.28585388 0 0 Z M-29 4 C-29 4.66 -29 5.32 -29 6 C-29.556875 6.04125 -30.11375 6.0825 -30.6875 6.125 C-35.3141919 7.87564018 -37.54160978 12.13233279 -39.75 16.3125 C-41.41285961 20.78437601 -41.41285961 20.78437601 -42 29 C-29.46 29 -16.92 29 -4 29 C-4.9152379 18.93238306 -5.56303017 12.66450675 -12.4375 5.4375 C-17.56409754 2.56160382 -23.45973353 2.15324451 -29 4 Z " fill="#1D1D1D" transform="translate(296,259)"/>
<path d="M0 0 C8.35570219 6.41251564 12.48006295 14.6805318 14.484375 24.98046875 C14.79666094 28.18139968 14.35521919 30.92421978 13.6875 34.0625 C8.36529315 34.95012211 3.24972189 35.20925772 -2.140625 35.1953125 C-2.97027771 35.19626923 -3.79993042 35.19722595 -4.65472412 35.19821167 C-6.40279212 35.19888898 -8.15086269 35.19706619 -9.89892578 35.19287109 C-12.54074928 35.18754386 -15.18240066 35.19281733 -17.82421875 35.19921875 C-26.3681642 35.20224294 -34.81931608 35.12596484 -43.3125 34.0625 C-43.03031919 36.98036964 -42.73715873 39.896418 -42.4375 42.8125 C-42.31955078 44.05 -42.31955078 44.05 -42.19921875 45.3125 C-42.07353516 46.51132812 -42.07353516 46.51132812 -41.9453125 47.734375 C-41.87199707 48.4675293 -41.79868164 49.20068359 -41.72314453 49.95605469 C-41.26873796 52.28698208 -40.45121984 53.98610327 -39.3125 56.0625 C-38.77625 57.155625 -38.24 58.24875 -37.6875 59.375 C-34.99725784 64.05763956 -30.66929236 68.74376015 -25.5625 70.75 C-22.14976554 71.2239909 -18.75003278 71.20618224 -15.3125 71.1875 C-14.24515625 71.19330078 -14.24515625 71.19330078 -13.15625 71.19921875 C-6.57452863 71.36283559 -6.57452863 71.36283559 -1.3125 68.0625 C-0.3225 68.0625 0.6675 68.0625 1.6875 68.0625 C1.6875 67.4025 1.6875 66.7425 1.6875 66.0625 C3.0625 64.4375 3.0625 64.4375 4.6875 63.0625 C5.3475 63.0625 6.0075 63.0625 6.6875 63.0625 C7.1515625 61.886875 7.1515625 61.886875 7.625 60.6875 C8.6875 58.0625 8.6875 58.0625 9.6875 56.0625 C11.3375 56.7225 12.9875 57.3825 14.6875 58.0625 C14.19320857 62.14040426 12.74414865 64.98695436 10.65234375 68.43359375 C9.61244257 70.10027516 9.61244257 70.10027516 8.8125 72.1875 C6.99744121 75.21259798 4.50316571 76.95075072 1.6875 79.0625 C1.0275 79.0625 0.3675 79.0625 -0.3125 79.0625 C-0.3125 79.7225 -0.3125 80.3825 -0.3125 81.0625 C-11.3089018 86.94628902 -22.33266238 89.16465233 -34.6875 85.9375 C-44.58004957 82.43556973 -52.96612836 74.10153346 -57.9921875 65.03125 C-60.60810235 59.17869473 -61.9273578 54.45702108 -61.3125 48.0625 C-61.9725 47.7325 -62.6325 47.4025 -63.3125 47.0625 C-63.33936553 45.08340602 -63.35883375 43.10421029 -63.375 41.125 C-63.38660156 40.02285156 -63.39820313 38.92070312 -63.41015625 37.78515625 C-63.3125 35.0625 -63.3125 35.0625 -62.3125 34.0625 C-61.96229331 32.36149609 -61.65747947 30.65105314 -61.375 28.9375 C-59.26382282 17.16654809 -55.13687359 10.08465781 -46.3125 2.0625 C-45.6525 2.0625 -44.9925 2.0625 -44.3125 2.0625 C-44.3125 1.4025 -44.3125 0.7425 -44.3125 0.0625 C-42.6625 -0.2675 -41.0125 -0.5975 -39.3125 -0.9375 C-39.3125 -1.5975 -39.3125 -2.2575 -39.3125 -2.9375 C-26.02146514 -8.7372243 -12.29180113 -7.18954405 0 0 Z M-38.0234375 9.1640625 C-41.03397629 13.59776509 -42.60642715 17.6248478 -42.3125 23.0625 C-42.6425 24.3825 -42.9725 25.7025 -43.3125 27.0625 C-30.7725 27.0625 -18.2325 27.0625 -5.3125 27.0625 C-6.0870758 14.01192854 -6.0870758 14.01192854 -12.91796875 3.5546875 C-21.84882725 -2.29022218 -31.82711488 1.31096912 -38.0234375 9.1640625 Z " fill="#1D1D1D" transform="translate(457.3125,260.9375)"/>
<path d="M0 0 C12.21 0 24.42 0 37 0 C37.495 2.475 37.495 2.475 38 5 C37.030625 5.4125 36.06125 5.825 35.0625 6.25 C31.93786031 7.6223371 31.93786031 7.6223371 31.23217773 9.84008789 C30.9586261 12.38489473 31.36919355 13.90141159 32.22265625 16.30859375 C32.51132568 17.13262695 32.79999512 17.95666016 33.09741211 18.80566406 C33.41589111 19.67416992 33.73437012 20.54267578 34.0625 21.4375 C34.53925171 22.7692627 34.53925171 22.7692627 35.02563477 24.12792969 C37.63141163 31.28134746 40.60373982 38.18259862 44 45 C44.33 45 44.66 45 45 45 C45.26554687 45.89203125 45.53109375 46.7840625 45.8046875 47.703125 C46.15789062 48.87359375 46.51109375 50.0440625 46.875 51.25 C47.22304688 52.41015625 47.57109375 53.5703125 47.9296875 54.765625 C48.78532389 57.35127072 49.6937546 59.62286874 51 62 C53.16115853 57.24085303 55.25979008 52.45836695 57.25 47.625 C57.58515625 46.81289063 57.9203125 46.00078125 58.265625 45.1640625 C59.16067554 42.90739879 59.16067554 42.90739879 59 40 C59.66 40 60.32 40 61 40 C61.50757862 38.58603098 62.00574925 37.16868271 62.5 35.75 C62.7784375 34.96109375 63.056875 34.1721875 63.34375 33.359375 C64.17864861 30.76587262 64.17864861 30.76587262 64 27 C64.66 27 65.32 27 66 27 C66.18175781 26.11248047 66.18175781 26.11248047 66.3671875 25.20703125 C67.10595245 21.72347039 67.79850209 18.4772319 69.1875 15.1875 C70.10796402 13.06635359 70.10796402 13.06635359 70.0625 10.9375 C68.28401399 7.69437845 65.24389967 6.65143983 62 5 C62 3.68 62 2.36 62 1 C65.05919388 -0.01973129 67.12418025 -0.11533602 70.32421875 -0.09765625 C71.35224609 -0.09443359 72.38027344 -0.09121094 73.43945312 -0.08789062 C75.04723633 -0.07532227 75.04723633 -0.07532227 76.6875 -0.0625 C78.31268555 -0.05573242 78.31268555 -0.05573242 79.97070312 -0.04882812 C82.64719085 -0.03703743 85.32356777 -0.02058063 88 0 C88.625 2.375 88.625 2.375 89 5 C87 7 87 7 84.5625 8.3125 C79.70253164 11.51296697 78.2034387 16.77131695 76.3125 22.0625 C73.94020636 28.54473517 71.44991457 34.97053998 68.875 41.375 C68.55055908 42.18203369 68.22611816 42.98906738 67.8918457 43.82055664 C67.25276521 45.4082849 66.6132825 46.99585132 65.97338867 48.58325195 C59.07617749 65.63988898 59.07617749 65.63988898 53 83 C52.34 83 51.68 83 51 83 C50.814375 84.36125 50.814375 84.36125 50.625 85.75 C50.07890323 88.58970323 49.42736197 90.52590591 48 93 C48.99 93.495 48.99 93.495 50 94 C49.01 94.33 48.02 94.66 47 95 C45.73115989 97.90896531 45.73115989 97.90896531 44.6875 101.4375 C41.52918613 110.93907361 36.92436183 118.76089445 30 126 C29.34 126 28.68 126 28 126 C28 126.66 28 127.32 28 128 C22.39894473 130.57401437 17.07349843 130.70563467 11 130 C7.92634214 128.19196596 6.56980268 127.13960536 5 124 C4.53223532 119.32235317 4.27030609 116.3373883 7.25 112.5625 C11.16535433 108.91410165 11.16535433 108.91410165 14 109 C16.02417134 109.95012124 18.02583732 110.94991347 20 112 C20.99 112 21.98 112 23 112 C23 112.66 23 113.32 23 114 C26.96 113.01 26.96 113.01 31 112 C31.33 110.68 31.66 109.36 32 108 C32.77763304 106.3580292 33.59308556 104.7336471 34.4375 103.125 C35.93505406 100.21165489 37.14745351 97.55763948 38.1875 94.4375 C38.455625 93.633125 38.72375 92.82875 39 92 C39.66 91.67 40.32 91.34 41 91 C40.73988711 89.62293175 40.46626234 88.24841445 40.1875 86.875 C40.03667969 86.10929687 39.88585937 85.34359375 39.73046875 84.5546875 C38.84770893 81.46738846 37.44814849 78.86922879 36 76 C34.27444733 71.8701077 32.67162278 67.69064505 31.04882812 63.51953125 C29.19649266 58.81552711 27.19360308 54.29039024 24.8815918 49.79541016 C23.2276351 46.42703643 22.12581205 42.86914483 20.9296875 39.3203125 C20.11925542 36.85699824 20.11925542 36.85699824 18 35 C17.2890625 33.1875 17.2890625 33.1875 16.625 31 C14.19707595 23.42341288 11.60757583 16.51415893 7 10 C6.67 9.01 6.34 8.02 6 7 C4.68 7 3.36 7 2 7 C2 6.34 2 5.68 2 5 C1.34 5 0.68 5 0 5 C0 3.35 0 1.7 0 0 Z " fill="#1D1D1D" transform="translate(309,256)"/>
<path d="M0 0 C0.33 3.96 0.66 7.92 1 12 C1.66 12 2.32 12 3 12 C3.268125 11.236875 3.53625 10.47375 3.8125 9.6875 C4.95134505 7.11011382 5.81416671 5.73045136 8 4 C8.66 4 9.32 4 10 4 C10 3.34 10 2.68 10 2 C15.66185794 -0.95401284 20.61928747 -1.96391716 27 -1 C29.60147668 0.05089355 30.8873697 1.0541563 33 3 C33 3.99 33 4.98 33 6 C33.66 6.33 34.32 6.66 35 7 C34.49197232 11.36903809 33.65725947 14.45698737 31 18 C28.62588573 19.74101713 27.50315173 20.03870398 24.5625 19.8125 C22 19 22 19 19.6875 17.4375 C15.84111682 15.38013225 13.33420928 15.57368433 9 16 C8.34 16.99 7.68 17.98 7 19 C6.34 19 5.68 19 5 19 C2.56661656 27.2560177 1.58081764 34.73968912 1.70703125 43.328125 C1.71339851 45.00065338 1.71339851 45.00065338 1.71989441 46.70697021 C1.73650765 50.22157326 1.77412658 53.73557421 1.8125 57.25 C1.82756928 59.65233539 1.84125373 62.05467989 1.85351562 64.45703125 C1.886354 70.30488828 1.93637642 76.15240111 2 82 C2.62648437 82.09796875 3.25296875 82.1959375 3.8984375 82.296875 C4.71570313 82.44640625 5.53296875 82.5959375 6.375 82.75 C7.18710938 82.88921875 7.99921875 83.0284375 8.8359375 83.171875 C11 84 11 84 12.2890625 86.078125 C12.52367187 86.71234375 12.75828125 87.3465625 13 88 C10.38114093 90.61885907 3.64316522 89.73799854 0.0715332 89.98486328 C-1.9261651 90.12420935 -3.92305686 90.27496359 -5.91992188 90.42578125 C-7.17224609 90.51472656 -8.42457031 90.60367188 -9.71484375 90.6953125 C-10.87105225 90.77797363 -12.02726074 90.86063477 -13.21850586 90.94580078 C-16 91 -16 91 -18 90 C-19.53668865 89.77532169 -21.07968054 89.59203195 -22.625 89.4375 C-23.85089844 89.31181641 -23.85089844 89.31181641 -25.1015625 89.18359375 C-25.72804687 89.12300781 -26.35453125 89.06242187 -27 89 C-27.33 87.68 -27.66 86.36 -28 85 C-24.535 84.505 -24.535 84.505 -21 84 C-21 83.34 -21 82.68 -21 82 C-20.34 82 -19.68 82 -19 82 C-17.932195 68.97615096 -17.98595387 56.0599131 -18.296875 43.00219727 C-18.37592914 39.64807839 -18.44256007 36.29386619 -18.5078125 32.93945312 C-18.55396501 30.79685932 -18.60081374 28.65428036 -18.6484375 26.51171875 C-18.66828705 25.51387863 -18.6881366 24.51603851 -18.70858765 23.48796082 C-18.73176056 22.56211685 -18.75493347 21.63627289 -18.77880859 20.68237305 C-18.79736908 19.87205124 -18.81592957 19.06172943 -18.83505249 18.22685242 C-18.99672228 16.04425043 -19.4017071 14.10108552 -20 12 C-20.763125 11.855625 -21.52625 11.71125 -22.3125 11.5625 C-25 11 -25 11 -28 10 C-27.76953125 8.12890625 -27.76953125 8.12890625 -27 6 C-19.59544736 1.38961817 -8.46204016 -1.69240803 0 0 Z " fill="#1D1D1D" transform="translate(200,256)"/>
<path d="M0 0 C0.99 0.495 0.99 0.495 2 1 C1.01 1.495 1.01 1.495 0 2 C0 1.34 0 0.68 0 0 Z " fill="#222222" transform="translate(196,251)"/>
<path d="M0 0 C0.33 0.66 0.66 1.32 1 2 C0.34 1.67 -0.32 1.34 -1 1 C-0.67 0.67 -0.34 0.34 0 0 Z " fill="#222222" transform="translate(156,211)"/>
<path d="M0 0 C2 1 2 1 2 1 Z " fill="#222222" transform="translate(315,388)"/>
<path d="" fill="#222222" transform="translate(0,0)"/>
<path d="M0 0 C2 1 2 1 2 1 Z " fill="#222222" transform="translate(130,357)"/>
<path d="" fill="#222222" transform="translate(0,0)"/>
<path d="" fill="#222222" transform="translate(0,0)"/>
<path d="M0 0 C2 1 2 1 2 1 Z " fill="#222222" transform="translate(273,350)"/>
<path d="" fill="#222222" transform="translate(0,0)"/>
<path d="M0 0 C2 1 2 1 2 1 Z " fill="#222222" transform="translate(291,348)"/>
<path d="M0 0 C2 1 2 1 2 1 Z " fill="#222222" transform="translate(489,343)"/>
<path d="" fill="#222222" transform="translate(0,0)"/>
<path d="M0 0 C2 1 2 1 2 1 Z " fill="#222222" transform="translate(466,334)"/>
<path d="" fill="#222222" transform="translate(0,0)"/>
<path d="" fill="#222222" transform="translate(0,0)"/>
<path d="M0 0 C2 1 2 1 2 1 Z " fill="#222222" transform="translate(204,331)"/>
<path d="M0 0 C2 1 2 1 2 1 Z " fill="#222222" transform="translate(85,309)"/>
<path d="" fill="#222222" transform="translate(0,0)"/>
<path d="" fill="#222222" transform="translate(0,0)"/>
<path d="" fill="#222222" transform="translate(0,0)"/>
<path d="M0 0 C2 1 2 1 2 1 Z " fill="#222222" transform="translate(177,256)"/>
<path d="" fill="#222222" transform="translate(0,0)"/>
<path d="M0 0 C2 1 2 1 2 1 Z " fill="#222222" transform="translate(282,252)"/>
<path d="M0 0 C2 1 2 1 2 1 Z " fill="#222222" transform="translate(170,223)"/>
<path d="" fill="#222222" transform="translate(0,0)"/>
<path d="" fill="#111111" transform="translate(0,0)"/>
<path d="M0 0 C2 1 2 1 2 1 Z " fill="#000000" transform="translate(229,168)"/>
<path d="M0 0 C2 1 2 1 2 1 Z " fill="#000000" transform="translate(203,116)"/>
<path d="" fill="#222222" transform="translate(0,0)"/>
<path d="" fill="#222222" transform="translate(0,0)"/>
<path d="" fill="#222222" transform="translate(0,0)"/>
<path d="" fill="#222222" transform="translate(0,0)"/>
<path d="" fill="#222222" transform="translate(0,0)"/>
<path d="" fill="#222222" transform="translate(0,0)"/>
<path d="" fill="#222222" transform="translate(0,0)"/>
<path d="" fill="#222222" transform="translate(0,0)"/>
<path d="" fill="#222222" transform="translate(0,0)"/>
<path d="" fill="#222222" transform="translate(0,0)"/>
<path d="" fill="#222222" transform="translate(0,0)"/>
<path d="" fill="#222222" transform="translate(0,0)"/>
<path d="" fill="#222222" transform="translate(0,0)"/>
<path d="" fill="#222222" transform="translate(0,0)"/>
<path d="" fill="#222222" transform="translate(0,0)"/>
<path d="" fill="#222222" transform="translate(0,0)"/>
<path d="" fill="#222222" transform="translate(0,0)"/>
<path d="" fill="#222222" transform="translate(0,0)"/>
<path d="" fill="#222222" transform="translate(0,0)"/>
<path d="" fill="#222222" transform="translate(0,0)"/>
<path d="" fill="#222222" transform="translate(0,0)"/>
<path d="" fill="#222222" transform="translate(0,0)"/>
<path d="" fill="#222222" transform="translate(0,0)"/>
<path d="" fill="#222222" transform="translate(0,0)"/>
<path d="" fill="#222222" transform="translate(0,0)"/>
<path d="" fill="#222222" transform="translate(0,0)"/>
<path d="" fill="#222222" transform="translate(0,0)"/>
<path d="" fill="#222222" transform="translate(0,0)"/>
<path d="" fill="#222222" transform="translate(0,0)"/>
<path d="" fill="#222222" transform="translate(0,0)"/>
<path d="" fill="#222222" transform="translate(0,0)"/>
<path d="" fill="#222222" transform="translate(0,0)"/>
<path d="" fill="#222222" transform="translate(0,0)"/>
<path d="" fill="#222222" transform="translate(0,0)"/>
<path d="" fill="#222222" transform="translate(0,0)"/>
<path d="" fill="#222222" transform="translate(0,0)"/>
<path d="" fill="#222222" transform="translate(0,0)"/>
<path d="" fill="#222222" transform="translate(0,0)"/>
<path d="" fill="#222222" transform="translate(0,0)"/>
<path d="" fill="#222222" transform="translate(0,0)"/>
<path d="" fill="#222222" transform="translate(0,0)"/>
<path d="" fill="#222222" transform="translate(0,0)"/>
<path d="" fill="#222222" transform="translate(0,0)"/>
<path d="" fill="#222222" transform="translate(0,0)"/>
<path d="" fill="#222222" transform="translate(0,0)"/>
<path d="" fill="#222222" transform="translate(0,0)"/>
<path d="" fill="#222222" transform="translate(0,0)"/>
<path d="" fill="#222222" transform="translate(0,0)"/>
<path d="" fill="#222222" transform="translate(0,0)"/>
<path d="" fill="#222222" transform="translate(0,0)"/>
<path d="" fill="#222222" transform="translate(0,0)"/>
<path d="" fill="#222222" transform="translate(0,0)"/>
<path d="" fill="#222222" transform="translate(0,0)"/>
<path d="" fill="#222222" transform="translate(0,0)"/>
<path d="" fill="#222222" transform="translate(0,0)"/>
<path d="" fill="#222222" transform="translate(0,0)"/>
<path d="" fill="#222222" transform="translate(0,0)"/>
<path d="" fill="#222222" transform="translate(0,0)"/>
<path d="" fill="#222222" transform="translate(0,0)"/>
<path d="" fill="#222222" transform="translate(0,0)"/>
<path d="" fill="#222222" transform="translate(0,0)"/>
<path d="" fill="#222222" transform="translate(0,0)"/>
<path d="" fill="#222222" transform="translate(0,0)"/>
<path d="" fill="#222222" transform="translate(0,0)"/>
<path d="" fill="#222222" transform="translate(0,0)"/>
<path d="" fill="#222222" transform="translate(0,0)"/>
<path d="" fill="#222222" transform="translate(0,0)"/>
<path d="" fill="#222222" transform="translate(0,0)"/>
<path d="" fill="#222222" transform="translate(0,0)"/>
<path d="" fill="#222222" transform="translate(0,0)"/>
<path d="" fill="#222222" transform="translate(0,0)"/>
<path d="" fill="#222222" transform="translate(0,0)"/>
<path d="" fill="#222222" transform="translate(0,0)"/>
<path d="" fill="#222222" transform="translate(0,0)"/>
<path d="" fill="#222222" transform="translate(0,0)"/>
<path d="" fill="#222222" transform="translate(0,0)"/>
<path d="" fill="#222222" transform="translate(0,0)"/>
<path d="" fill="#222222" transform="translate(0,0)"/>
<path d="" fill="#222222" transform="translate(0,0)"/>
<path d="" fill="#222222" transform="translate(0,0)"/>
<path d="" fill="#222222" transform="translate(0,0)"/>
<path d="" fill="#222222" transform="translate(0,0)"/>
<path d="" fill="#222222" transform="translate(0,0)"/>
<path d="" fill="#222222" transform="translate(0,0)"/>
<path d="" fill="#222222" transform="translate(0,0)"/>
<path d="" fill="#222222" transform="translate(0,0)"/>
<path d="" fill="#222222" transform="translate(0,0)"/>
<path d="" fill="#222222" transform="translate(0,0)"/>
<path d="" fill="#222222" transform="translate(0,0)"/>
<path d="" fill="#222222" transform="translate(0,0)"/>
<path d="" fill="#222222" transform="translate(0,0)"/>
<path d="" fill="#222222" transform="translate(0,0)"/>
<path d="" fill="#222222" transform="translate(0,0)"/>
<path d="" fill="#222222" transform="translate(0,0)"/>
<path d="" fill="#222222" transform="translate(0,0)"/>
<path d="" fill="#222222" transform="translate(0,0)"/>
<path d="" fill="#222222" transform="translate(0,0)"/>
<path d="" fill="#222222" transform="translate(0,0)"/>
<path d="" fill="#222222" transform="translate(0,0)"/>
<path d="" fill="#222222" transform="translate(0,0)"/>
<path d="" fill="#222222" transform="translate(0,0)"/>
<path d="" fill="#222222" transform="translate(0,0)"/>
<path d="" fill="#222222" transform="translate(0,0)"/>
<path d="" fill="#222222" transform="translate(0,0)"/>
<path d="" fill="#222222" transform="translate(0,0)"/>
<path d="" fill="#222222" transform="translate(0,0)"/>
<path d="" fill="#222222" transform="translate(0,0)"/>
<path d="" fill="#222222" transform="translate(0,0)"/>
<path d="" fill="#222222" transform="translate(0,0)"/>
<path d="" fill="#222222" transform="translate(0,0)"/>
<path d="" fill="#222222" transform="translate(0,0)"/>
<path d="" fill="#222222" transform="translate(0,0)"/>
<path d="" fill="#222222" transform="translate(0,0)"/>
<path d="" fill="#222222" transform="translate(0,0)"/>
<path d="" fill="#222222" transform="translate(0,0)"/>
<path d="" fill="#222222" transform="translate(0,0)"/>
<path d="" fill="#222222" transform="translate(0,0)"/>
<path d="" fill="#222222" transform="translate(0,0)"/>
<path d="" fill="#222222" transform="translate(0,0)"/>
<path d="" fill="#222222" transform="translate(0,0)"/>
<path d="" fill="#222222" transform="translate(0,0)"/>
<path d="" fill="#222222" transform="translate(0,0)"/>
<path d="" fill="#222222" transform="translate(0,0)"/>
<path d="" fill="#222222" transform="translate(0,0)"/>
<path d="" fill="#222222" transform="translate(0,0)"/>
<path d="" fill="#222222" transform="translate(0,0)"/>
<path d="" fill="#222222" transform="translate(0,0)"/>
<path d="" fill="#222222" transform="translate(0,0)"/>
<path d="" fill="#222222" transform="translate(0,0)"/>
<path d="" fill="#222222" transform="translate(0,0)"/>
<path d="" fill="#222222" transform="translate(0,0)"/>
<path d="" fill="#222222" transform="translate(0,0)"/>
<path d="" fill="#222222" transform="translate(0,0)"/>
<path d="" fill="#222222" transform="translate(0,0)"/>
<path d="" fill="#222222" transform="translate(0,0)"/>
<path d="" fill="#222222" transform="translate(0,0)"/>
<path d="" fill="#222222" transform="translate(0,0)"/>
<path d="" fill="#222222" transform="translate(0,0)"/>
<path d="" fill="#222222" transform="translate(0,0)"/>
<path d="" fill="#222222" transform="translate(0,0)"/>
<path d="" fill="#222222" transform="translate(0,0)"/>
<path d="" fill="#222222" transform="translate(0,0)"/>
<path d="" fill="#222222" transform="translate(0,0)"/>
<path d="" fill="#222222" transform="translate(0,0)"/>
<path d="" fill="#222222" transform="translate(0,0)"/>
<path d="" fill="#222222" transform="translate(0,0)"/>
<path d="" fill="#222222" transform="translate(0,0)"/>
<path d="" fill="#222222" transform="translate(0,0)"/>
<path d="" fill="#222222" transform="translate(0,0)"/>
<path d="" fill="#222222" transform="translate(0,0)"/>
<path d="" fill="#222222" transform="translate(0,0)"/>
<path d="" fill="#222222" transform="translate(0,0)"/>
<path d="" fill="#222222" transform="translate(0,0)"/>
<path d="" fill="#222222" transform="translate(0,0)"/>
<path d="" fill="#222222" transform="translate(0,0)"/>
<path d="" fill="#222222" transform="translate(0,0)"/>
<path d="" fill="#222222" transform="translate(0,0)"/>
<path d="" fill="#222222" transform="translate(0,0)"/>
<path d="" fill="#222222" transform="translate(0,0)"/>
<path d="" fill="#222222" transform="translate(0,0)"/>
<path d="" fill="#222222" transform="translate(0,0)"/>
<path d="" fill="#222222" transform="translate(0,0)"/>
<path d="" fill="#222222" transform="translate(0,0)"/>
<path d="" fill="#222222" transform="translate(0,0)"/>
<path d="" fill="#222222" transform="translate(0,0)"/>
<path d="" fill="#222222" transform="translate(0,0)"/>
<path d="" fill="#222222" transform="translate(0,0)"/>
<path d="" fill="#222222" transform="translate(0,0)"/>
<path d="" fill="#222222" transform="translate(0,0)"/>
<path d="" fill="#222222" transform="translate(0,0)"/>
<path d="" fill="#222222" transform="translate(0,0)"/>
<path d="" fill="#222222" transform="translate(0,0)"/>
<path d="" fill="#222222" transform="translate(0,0)"/>
<path d="" fill="#222222" transform="translate(0,0)"/>
<path d="" fill="#222222" transform="translate(0,0)"/>
<path d="" fill="#222222" transform="translate(0,0)"/>
<path d="" fill="#222222" transform="translate(0,0)"/>
<path d="" fill="#222222" transform="translate(0,0)"/>
<path d="" fill="#222222" transform="translate(0,0)"/>
<path d="" fill="#222222" transform="translate(0,0)"/>
<path d="" fill="#222222" transform="translate(0,0)"/>
<path d="" fill="#222222" transform="translate(0,0)"/>
<path d="" fill="#222222" transform="translate(0,0)"/>
<path d="" fill="#222222" transform="translate(0,0)"/>
<path d="" fill="#222222" transform="translate(0,0)"/>
<path d="" fill="#222222" transform="translate(0,0)"/>
<path d="" fill="#222222" transform="translate(0,0)"/>
<path d="" fill="#222222" transform="translate(0,0)"/>
<path d="" fill="#222222" transform="translate(0,0)"/>
<path d="" fill="#222222" transform="translate(0,0)"/>
<path d="" fill="#222222" transform="translate(0,0)"/>
<path d="" fill="#222222" transform="translate(0,0)"/>
<path d="" fill="#222222" transform="translate(0,0)"/>
<path d="" fill="#222222" transform="translate(0,0)"/>
<path d="" fill="#222222" transform="translate(0,0)"/>
<path d="" fill="#222222" transform="translate(0,0)"/>
<path d="" fill="#222222" transform="translate(0,0)"/>
<path d="" fill="#222222" transform="translate(0,0)"/>
<path d="" fill="#222222" transform="translate(0,0)"/>
<path d="" fill="#222222" transform="translate(0,0)"/>
<path d="" fill="#222222" transform="translate(0,0)"/>
<path d="" fill="#222222" transform="translate(0,0)"/>
<path d="" fill="#222222" transform="translate(0,0)"/>
<path d="" fill="#222222" transform="translate(0,0)"/>
<path d="" fill="#222222" transform="translate(0,0)"/>
<path d="" fill="#222222" transform="translate(0,0)"/>
<path d="" fill="#222222" transform="translate(0,0)"/>
<path d="" fill="#222222" transform="translate(0,0)"/>
<path d="" fill="#222222" transform="translate(0,0)"/>
<path d="" fill="#222222" transform="translate(0,0)"/>
<path d="" fill="#222222" transform="translate(0,0)"/>
<path d="" fill="#222222" transform="translate(0,0)"/>
<path d="" fill="#222222" transform="translate(0,0)"/>
<path d="" fill="#222222" transform="translate(0,0)"/>
<path d="" fill="#222222" transform="translate(0,0)"/>
<path d="" fill="#222222" transform="translate(0,0)"/>
<path d="" fill="#222222" transform="translate(0,0)"/>
<path d="" fill="#222222" transform="translate(0,0)"/>
<path d="" fill="#222222" transform="translate(0,0)"/>
<path d="" fill="#222222" transform="translate(0,0)"/>
<path d="" fill="#222222" transform="translate(0,0)"/>
<path d="" fill="#222222" transform="translate(0,0)"/>
<path d="" fill="#222222" transform="translate(0,0)"/>
<path d="" fill="#222222" transform="translate(0,0)"/>
<path d="" fill="#222222" transform="translate(0,0)"/>
<path d="" fill="#222222" transform="translate(0,0)"/>
<path d="" fill="#222222" transform="translate(0,0)"/>
<path d="" fill="#222222" transform="translate(0,0)"/>
<path d="" fill="#222222" transform="translate(0,0)"/>
<path d="" fill="#222222" transform="translate(0,0)"/>
<path d="" fill="#222222" transform="translate(0,0)"/>
<path d="" fill="#222222" transform="translate(0,0)"/>
<path d="" fill="#222222" transform="translate(0,0)"/>
<path d="" fill="#222222" transform="translate(0,0)"/>
<path d="" fill="#222222" transform="translate(0,0)"/>
<path d="" fill="#222222" transform="translate(0,0)"/>
<path d="" fill="#222222" transform="translate(0,0)"/>
<path d="" fill="#222222" transform="translate(0,0)"/>
<path d="" fill="#222222" transform="translate(0,0)"/>
<path d="" fill="#222222" transform="translate(0,0)"/>
<path d="" fill="#222222" transform="translate(0,0)"/>
<path d="" fill="#222222" transform="translate(0,0)"/>
<path d="" fill="#222222" transform="translate(0,0)"/>
<path d="" fill="#222222" transform="translate(0,0)"/>
<path d="" fill="#222222" transform="translate(0,0)"/>
<path d="" fill="#222222" transform="translate(0,0)"/>
<path d="" fill="#222222" transform="translate(0,0)"/>
<path d="" fill="#222222" transform="translate(0,0)"/>
<path d="" fill="#222222" transform="translate(0,0)"/>
<path d="" fill="#222222" transform="translate(0,0)"/>
<path d="" fill="#222222" transform="translate(0,0)"/>
<path d="" fill="#222222" transform="translate(0,0)"/>
<path d="" fill="#222222" transform="translate(0,0)"/>
<path d="" fill="#222222" transform="translate(0,0)"/>
<path d="" fill="#222222" transform="translate(0,0)"/>
<path d="" fill="#222222" transform="translate(0,0)"/>
<path d="" fill="#222222" transform="translate(0,0)"/>
<path d="" fill="#222222" transform="translate(0,0)"/>
<path d="" fill="#222222" transform="translate(0,0)"/>
<path d="" fill="#222222" transform="translate(0,0)"/>
<path d="" fill="#222222" transform="translate(0,0)"/>
<path d="" fill="#222222" transform="translate(0,0)"/>
<path d="" fill="#222222" transform="translate(0,0)"/>
<path d="" fill="#222222" transform="translate(0,0)"/>
<path d="" fill="#222222" transform="translate(0,0)"/>
<path d="" fill="#222222" transform="translate(0,0)"/>
<path d="" fill="#222222" transform="translate(0,0)"/>
<path d="" fill="#222222" transform="translate(0,0)"/>
<path d="" fill="#222222" transform="translate(0,0)"/>
<path d="" fill="#222222" transform="translate(0,0)"/>
<path d="" fill="#222222" transform="translate(0,0)"/>
<path d="" fill="#222222" transform="translate(0,0)"/>
<path d="" fill="#222222" transform="translate(0,0)"/>
<path d="" fill="#222222" transform="translate(0,0)"/>
<path d="" fill="#222222" transform="translate(0,0)"/>
<path d="" fill="#222222" transform="translate(0,0)"/>
<path d="" fill="#222222" transform="translate(0,0)"/>
<path d="" fill="#222222" transform="translate(0,0)"/>
<path d="" fill="#222222" transform="translate(0,0)"/>
<path d="" fill="#222222" transform="translate(0,0)"/>
<path d="" fill="#222222" transform="translate(0,0)"/>
<path d="" fill="#222222" transform="translate(0,0)"/>
<path d="" fill="#222222" transform="translate(0,0)"/>
<path d="" fill="#222222" transform="translate(0,0)"/>
<path d="" fill="#222222" transform="translate(0,0)"/>
<path d="" fill="#222222" transform="translate(0,0)"/>
<path d="" fill="#222222" transform="translate(0,0)"/>
<path d="" fill="#222222" transform="translate(0,0)"/>
<path d="" fill="#222222" transform="translate(0,0)"/>
<path d="" fill="#222222" transform="translate(0,0)"/>
<path d="" fill="#222222" transform="translate(0,0)"/>
<path d="" fill="#222222" transform="translate(0,0)"/>
<path d="" fill="#222222" transform="translate(0,0)"/>
<path d="" fill="#222222" transform="translate(0,0)"/>
<path d="" fill="#222222" transform="translate(0,0)"/>
<path d="" fill="#222222" transform="translate(0,0)"/>
<path d="" fill="#222222" transform="translate(0,0)"/>
<path d="" fill="#222222" transform="translate(0,0)"/>
<path d="" fill="#222222" transform="translate(0,0)"/>
<path d="" fill="#222222" transform="translate(0,0)"/>
<path d="" fill="#222222" transform="translate(0,0)"/>
<path d="" fill="#222222" transform="translate(0,0)"/>
<path d="" fill="#222222" transform="translate(0,0)"/>
<path d="" fill="#222222" transform="translate(0,0)"/>
<path d="" fill="#222222" transform="translate(0,0)"/>
<path d="" fill="#222222" transform="translate(0,0)"/>
<path d="" fill="#222222" transform="translate(0,0)"/>
<path d="" fill="#222222" transform="translate(0,0)"/>
<path d="" fill="#222222" transform="translate(0,0)"/>
<path d="" fill="#222222" transform="translate(0,0)"/>
<path d="" fill="#222222" transform="translate(0,0)"/>
<path d="" fill="#222222" transform="translate(0,0)"/>
<path d="" fill="#222222" transform="translate(0,0)"/>
<path d="" fill="#222222" transform="translate(0,0)"/>
<path d="" fill="#222222" transform="translate(0,0)"/>
<path d="" fill="#222222" transform="translate(0,0)"/>
<path d="" fill="#222222" transform="translate(0,0)"/>
<path d="" fill="#222222" transform="translate(0,0)"/>
<path d="" fill="#222222" transform="translate(0,0)"/>
<path d="" fill="#222222" transform="translate(0,0)"/>
<path d="" fill="#222222" transform="translate(0,0)"/>
<path d="" fill="#222222" transform="translate(0,0)"/>
<path d="" fill="#222222" transform="translate(0,0)"/>
<path d="" fill="#222222" transform="translate(0,0)"/>
<path d="" fill="#222222" transform="translate(0,0)"/>
<path d="" fill="#222222" transform="translate(0,0)"/>
<path d="" fill="#222222" transform="translate(0,0)"/>
<path d="" fill="#222222" transform="translate(0,0)"/>
<path d="" fill="#222222" transform="translate(0,0)"/>
<path d="" fill="#222222" transform="translate(0,0)"/>
<path d="" fill="#222222" transform="translate(0,0)"/>
<path d="" fill="#222222" transform="translate(0,0)"/>
<path d="" fill="#222222" transform="translate(0,0)"/>
<path d="" fill="#222222" transform="translate(0,0)"/>
<path d="" fill="#222222" transform="translate(0,0)"/>
<path d="" fill="#222222" transform="translate(0,0)"/>
<path d="" fill="#222222" transform="translate(0,0)"/>
<path d="" fill="#222222" transform="translate(0,0)"/>
<path d="" fill="#222222" transform="translate(0,0)"/>
<path d="" fill="#222222" transform="translate(0,0)"/>
<path d="" fill="#222222" transform="translate(0,0)"/>
<path d="" fill="#222222" transform="translate(0,0)"/>
<path d="" fill="#222222" transform="translate(0,0)"/>
<path d="" fill="#222222" transform="translate(0,0)"/>
<path d="" fill="#222222" transform="translate(0,0)"/>
<path d="" fill="#222222" transform="translate(0,0)"/>
<path d="" fill="#222222" transform="translate(0,0)"/>
<path d="" fill="#222222" transform="translate(0,0)"/>
<path d="" fill="#222222" transform="translate(0,0)"/>
<path d="" fill="#222222" transform="translate(0,0)"/>
<path d="" fill="#222222" transform="translate(0,0)"/>
<path d="" fill="#222222" transform="translate(0,0)"/>
<path d="" fill="#222222" transform="translate(0,0)"/>
<path d="" fill="#222222" transform="translate(0,0)"/>
<path d="" fill="#222222" transform="translate(0,0)"/>
<path d="" fill="#222222" transform="translate(0,0)"/>
<path d="" fill="#222222" transform="translate(0,0)"/>
<path d="" fill="#222222" transform="translate(0,0)"/>
<path d="" fill="#222222" transform="translate(0,0)"/>
<path d="" fill="#222222" transform="translate(0,0)"/>
<path d="" fill="#222222" transform="translate(0,0)"/>
<path d="" fill="#222222" transform="translate(0,0)"/>
<path d="" fill="#222222" transform="translate(0,0)"/>
<path d="" fill="#222222" transform="translate(0,0)"/>
<path d="" fill="#222222" transform="translate(0,0)"/>
<path d="" fill="#222222" transform="translate(0,0)"/>
<path d="" fill="#222222" transform="translate(0,0)"/>
<path d="" fill="#222222" transform="translate(0,0)"/>
<path d="" fill="#222222" transform="translate(0,0)"/>
<path d="" fill="#222222" transform="translate(0,0)"/>
<path d="" fill="#222222" transform="translate(0,0)"/>
<path d="" fill="#222222" transform="translate(0,0)"/>
<path d="" fill="#222222" transform="translate(0,0)"/>
<path d="" fill="#222222" transform="translate(0,0)"/>
<path d="" fill="#222222" transform="translate(0,0)"/>
<path d="" fill="#222222" transform="translate(0,0)"/>
<path d="" fill="#222222" transform="translate(0,0)"/>
<path d="" fill="#222222" transform="translate(0,0)"/>
<path d="" fill="#222222" transform="translate(0,0)"/>
<path d="" fill="#222222" transform="translate(0,0)"/>
<path d="" fill="#222222" transform="translate(0,0)"/>
<path d="" fill="#222222" transform="translate(0,0)"/>
<path d="" fill="#222222" transform="translate(0,0)"/>
<path d="" fill="#222222" transform="translate(0,0)"/>
<path d="" fill="#000000" transform="translate(0,0)"/>
<path d="" fill="#222222" transform="translate(0,0)"/>
<path d="" fill="#000000" transform="translate(0,0)"/>
<path d="" fill="#000000" transform="translate(0,0)"/>
<path d="" fill="#000000" transform="translate(0,0)"/>
<path d="" fill="#000000" transform="translate(0,0)"/>
<path d="" fill="#000000" transform="translate(0,0)"/>
<path d="" fill="#000000" transform="translate(0,0)"/>
<path d="" fill="#000000" transform="translate(0,0)"/>
<path d="" fill="#000000" transform="translate(0,0)"/>
<path d="" fill="#000000" transform="translate(0,0)"/>
<path d="" fill="#000000" transform="translate(0,0)"/>
<path d="" fill="#000000" transform="translate(0,0)"/>
<path d="" fill="#000000" transform="translate(0,0)"/>
<path d="" fill="#000000" transform="translate(0,0)"/>
<path d="" fill="#000000" transform="translate(0,0)"/>
<path d="" fill="#000000" transform="translate(0,0)"/>
<path d="" fill="#000000" transform="translate(0,0)"/>
<path d="" fill="#000000" transform="translate(0,0)"/>
<path d="" fill="#000000" transform="translate(0,0)"/>
<path d="" fill="#000000" transform="translate(0,0)"/>
<path d="" fill="#000000" transform="translate(0,0)"/>
<path d="" fill="#000000" transform="translate(0,0)"/>
<path d="" fill="#000000" transform="translate(0,0)"/>
<path d="" fill="#000000" transform="translate(0,0)"/>
<path d="" fill="#000000" transform="translate(0,0)"/>
<path d="" fill="#000000" transform="translate(0,0)"/>
<path d="" fill="#000000" transform="translate(0,0)"/>
<path d="" fill="#000000" transform="translate(0,0)"/>
<path d="" fill="#000000" transform="translate(0,0)"/>
<path d="" fill="#000000" transform="translate(0,0)"/>
<path d="" fill="#000000" transform="translate(0,0)"/>
<path d="" fill="#000000" transform="translate(0,0)"/>
<path d="" fill="#000000" transform="translate(0,0)"/>
<path d="" fill="#000000" transform="translate(0,0)"/>
<path d="" fill="#000000" transform="translate(0,0)"/>
<path d="" fill="#000000" transform="translate(0,0)"/>
<path d="" fill="#000000" transform="translate(0,0)"/>
<path d="" fill="#000000" transform="translate(0,0)"/>
<path d="" fill="#000000" transform="translate(0,0)"/>
<path d="" fill="#000000" transform="translate(0,0)"/>
<path d="" fill="#000000" transform="translate(0,0)"/>
<path d="" fill="#000000" transform="translate(0,0)"/>
<path d="" fill="#000000" transform="translate(0,0)"/>
<path d="" fill="#000000" transform="translate(0,0)"/>
<path d="" fill="#000000" transform="translate(0,0)"/>
<path d="" fill="#000000" transform="translate(0,0)"/>
<path d="" fill="#000000" transform="translate(0,0)"/>
<path d="" fill="#000000" transform="translate(0,0)"/>
<path d="" fill="#000000" transform="translate(0,0)"/>
<path d="" fill="#000000" transform="translate(0,0)"/>
<path d="" fill="#000000" transform="translate(0,0)"/>
<path d="" fill="#000000" transform="translate(0,0)"/>
<path d="" fill="#000000" transform="translate(0,0)"/>
<path d="" fill="#000000" transform="translate(0,0)"/>
<path d="" fill="#000000" transform="translate(0,0)"/>
<path d="" fill="#000000" transform="translate(0,0)"/>
<path d="" fill="#000000" transform="translate(0,0)"/>
<path d="" fill="#000000" transform="translate(0,0)"/>
<path d="" fill="#000000" transform="translate(0,0)"/>
<path d="" fill="#000000" transform="translate(0,0)"/>
</svg>
